# xmcd CD database file
#
# Track frame offsets:
#	150
#	16503
#	26249
#	51380
#	62063
#	71892
#	84032
#	93350
#	110042
#	125204
#	141807
#	153707
#	169360
#	177313
#	198849
#	214151
#	229487
#	241005
#
# Disc length: 3777 seconds
#
# Revision: 1
# Processed by: cddbd v1.5.1PL0 Copyright (c) Steve Scherf et al.
# Submitted via: CDex 1.51
#
DISCID=050ebf12
DTITLE=Mississippi Fred McDowell - The Best Of Mississippi Fred McDowell
DYEAR=2001
DGENRE=Blues
TTITLE0=Write Me A Few Of Your Lines
TTITLE1=Do My Baby Ever Think Of Me
TTITLE2=Levee Camp Blues
TTITLE3=When The Saints Go Marching In
TTITLE4=My Bottleneck (story)
TTITLE5=Fred's Worried Life Blues
TTITLE6=Kokomo Blues
TTITLE7=Meet Me Down In Froggy Bottom
TTITLE8=Good Morning Little School Girl
TTITLE9=Keep Your Lamp Trimmed And Burning
TTITLE10=Shake 'Em On Down
TTITLE11=Going Away - Won't Be Gone Long
TTITLE12=I Wish I Was In Heaven Sittin' Down
TTITLE13=Fred's Rambling Blues
TTITLE14=I Looked At The Sun
TTITLE15=You Gotta Move
TTITLE16=My Baby
TTITLE17=Shake 'Em On Down and Louise
EXTD=YEAR: 2001
EXTT0=
EXTT1=
EXTT2=
EXTT3=
EXTT4=
EXTT5=
EXTT6=
EXTT7=
EXTT8=
EXTT9=
EXTT10=
EXTT11=
EXTT12=
EXTT13=
EXTT14=
EXTT15=
EXTT16=
EXTT17=
PLAYORDER=
